# xmcd CD database file
#
# Track frame offsets:
#	187
#	14025
#	27712
#	38737
#	50062
#	60875
#	73337
#	85312
#	96962
#	109362
#	119337
#	130262
#	141962
#	155200
#	167137
#	178262
#	190187
#	203100
#	216787
#	229725
#	242325
#	254737
#	266462
#
# Disc length: 3710 seconds
#
# Revision: 0
# Processed by: cddbd v1.4PL0 Copyright (c) Steve Scherf et al.
# Submitted via: CDex 1.50beta8
#
DISCID=630e7c17
DTITLE=HANK WILLIAMS - THE IMMORTAL HANK WILLIAMS Disc4
DYEAR=1988
DGENRE=Country
TTITLE0=I DREAMED ABOUT MAMA LAST NIGHT
TTITLE1=I'D STILL WANT YOU
TTITLE2=LONESOME WHISTLE
TTITLE3=CRAZY HEART
TTITLE4=CRAZY HEART
TTITLE5=HALF AS MUCH
TTITLE6=I'D STILL WANT YOU
TTITLE7=BABY,WE'RE REALLY IN LOVE
TTITLE8=I'M SORRY FOR YOU,MY FRIEND
TTITLE9=HONKY TONK BLUES
TTITLE10=LET'S TURN BACK THE YEARS
TTITLE11=WINDOW SHOPPING
TTITLE12=JAMBALAYA
TTITLE13=SETTIN' THE WOODS ON FIRE
TTITLE14=I'LL NEVER GET OUT OF THIS WORLD ALIVE
TTITLE15=YOU WIN AGAIN
TTITLE16=I WON'T BE HOME NO MORE
TTITLE17=BE CAREFUL OF STONES THAT YOU THROW
TTITLE18=WHY DON'T YOU MAKE UP YOUR MIND
TTITLE19=I COULD NEVER BE ASHAMED OF YOU
TTITLE20=YOUR CHEATIN' HEART
TTITLE21=KAW-LIGA
TTITLE22=TAKE THESE CHAINS FROM MY HEART
EXTD=YEAR: 1988
EXTT0=
EXTT1=
EXTT2=
EXTT3=
EXTT4=
EXTT5=
EXTT6=
EXTT7=
EXTT8=
EXTT9=
EXTT10=
EXTT11=
EXTT12=
EXTT13=
EXTT14=
EXTT15=
EXTT16=
EXTT17=
EXTT18=
EXTT19=
EXTT20=
EXTT21=
EXTT22=
PLAYORDER=
